<svg width="12" height="10" viewBox="0 0 12 10" fill="none" xmlns="http://www.w3.org/2000/svg">
<path d="M9.64047 0.751821C9.19526 0.387886 8.65768 0.144837 8.08294 0.0476345C7.5082 -0.0495684 6.91699 0.00257683 6.37004 0.198713C5.94871 0.349284 5.56271 0.579355 5.23457 0.875492C4.91414 1.16436 4.6581 1.51322 4.48207 1.90076C4.30604 2.2883 4.21373 2.70641 4.21077 3.12953V3.14346C4.21077 3.14744 4.18234 4.47246 4.13419 6.70348L1.66308 4.31915L0 5.92382L4.1766 10H6.69357L6.71857 7.55483L7.97327 8.76525L11.1839 5.66496L11.2643 5.58753C11.3866 5.47204 11.9612 4.90545 11.9981 4.02047C12.0283 3.30851 11.6943 2.78925 11.4755 2.52641L9.63887 0.751821H9.64047ZM9.3683 4.05322C9.3632 4.11963 9.34441 4.18439 9.31304 4.2437L6.92081 6.55194L6.72705 6.73556L6.76397 3.11249C6.76473 2.94556 6.81815 2.7828 6.91713 2.64588C7.00295 2.52608 7.12346 2.43336 7.2636 2.37929C7.27338 2.37545 7.28325 2.37191 7.29318 2.36867C7.41499 2.32811 7.54606 2.32095 7.67183 2.34798C7.7976 2.37501 7.91314 2.43517 8.0056 2.52177L9.18899 3.63461C9.21192 3.65431 9.3871 3.80851 9.3683 4.05255V4.05322Z" fill="#F4F1EB"/>
</svg>
