<svg width="401" height="115" viewBox="0 0 401 115" fill="none" xmlns="http://www.w3.org/2000/svg">
<path d="M175.666 92.7419V32.2H198.551C213.295 32.2 222.431 39.6787 222.431 52.0542C222.431 64.7858 213.205 72.0865 198.732 72.0865H187.877V92.7419H175.666ZM198.37 41.7265H187.877V62.56H198.099C205.878 62.56 209.948 58.4645 209.948 52.1432C209.948 45.8219 205.787 41.7265 198.37 41.7265Z" fill="#121108"/>
<path d="M275.092 77.1613C272.468 88.2013 263.785 94.0774 252.206 94.0774C237.552 94.0774 228.597 84.551 228.597 68.9703C228.597 52.7664 237.643 43.6852 251.754 43.6852C265.956 43.6852 274.73 53.1226 274.73 68.5252V71.1961H240.537C241.08 79.9213 245.151 84.729 252.206 84.729C257.634 84.729 261.342 82.2361 262.88 77.1613H275.092ZM251.754 53.0336C245.603 53.0336 241.894 56.8619 240.809 64.0735H262.609C261.523 56.951 257.814 53.0336 251.754 53.0336Z" fill="#121108"/>
<path d="M283.418 92.7419V45.0206H294.997V51.9652C298.163 46.2671 303.047 43.6852 308.294 43.6852C310.284 43.6852 312.093 44.2194 312.998 45.0206V54.9032C311.46 54.4581 309.741 54.28 307.661 54.28C298.886 54.28 294.997 59.4439 294.997 67.3677V92.7419H283.418Z" fill="#121108"/>
<path d="M328.785 57.8413C328.785 68.7923 359.359 59.5329 359.359 78.6748C359.359 87.8452 350.766 94.0774 338.645 94.0774C326.705 94.0774 318.111 88.6465 316.393 77.1613H327.971C328.785 82.3252 332.946 85.2632 339.007 85.2632C344.705 85.2632 347.69 82.8594 347.69 79.3871C347.69 68.7032 317.749 77.8736 317.749 58.5536C317.749 50.8077 323.9 43.6852 336.564 43.6852C347.69 43.6852 356.103 48.849 357.55 60.6903H345.972C345.067 54.9032 341.63 52.5884 336.112 52.5884C331.499 52.5884 328.785 54.8142 328.785 57.8413Z" fill="#121108"/>
<path d="M367.249 39.6787V28.6387H378.828V39.6787H367.249ZM367.249 92.7419V45.0206H378.828V92.7419H367.249Z" fill="#121108"/>
<path d="M389.422 92.7419V28.6387H401V92.7419H389.422Z" fill="#121108"/>
<path d="M112.033 8.64594C106.859 4.46069 100.612 1.66563 93.9325 0.547796C87.2534 -0.570037 80.383 0.0296335 74.0268 2.2852C69.1305 4.01677 64.6447 6.66259 60.8314 10.0682C57.1077 13.3902 54.1321 17.402 52.0865 21.8588C50.0409 26.3155 48.9681 31.1237 48.9337 35.9895V36.1498C48.9337 36.1956 48.6033 51.4333 48.0437 77.09L19.3267 49.6702L0 68.124L48.5366 115H77.7866L78.077 86.8806L92.658 100.8L129.969 65.1471L130.904 64.2566C132.324 62.9285 139.002 56.4126 139.431 46.2354C139.782 38.0479 135.9 32.0764 133.358 29.0537L112.014 8.64594H112.033ZM108.87 46.612C108.811 47.3757 108.592 48.1204 108.228 48.8026L80.4273 75.3473L78.1756 77.459L78.6046 35.7936C78.6135 33.8739 79.2343 32.0022 80.3846 30.4276C81.3819 29.05 82.7824 27.9836 84.4109 27.3618C84.5246 27.3177 84.6392 27.277 84.7547 27.2397C86.1702 26.7733 87.6934 26.6909 89.155 27.0018C90.6166 27.3126 91.9593 28.0044 93.0337 29.0003L106.786 41.7981C107.052 42.0245 109.088 43.7979 108.87 46.6043V46.612Z" fill="#121108"/>
</svg>
