<svg width="28" height="24" viewBox="0 0 28 24" fill="none" xmlns="http://www.w3.org/2000/svg">
<path d="M22.4944 1.80437C21.4556 0.930926 20.2013 0.34761 18.8602 0.114323C17.5191 -0.118964 16.1397 0.00618439 14.8634 0.476911C13.8803 0.838283 12.9796 1.39045 12.214 2.10118C11.4663 2.79447 10.8689 3.63173 10.4582 4.56183C10.0474 5.49193 9.83204 6.49538 9.82512 7.51086V7.54431C9.82512 7.55386 9.75879 10.7339 9.64643 16.0883L3.88051 10.366L0 14.2172L9.74541 24H15.6183L15.6767 18.1316L18.6043 21.0366L26.0957 13.5959L26.2835 13.4101C26.5686 13.1329 27.9094 11.7731 27.9955 9.64913C28.0661 7.94043 27.2866 6.6942 26.7762 6.06339L22.4907 1.80437H22.4944ZM21.8594 9.72772C21.8475 9.88711 21.8036 10.0425 21.7304 10.1849L16.1485 15.7246L15.6964 16.1653L15.7826 7.46997C15.7844 7.06933 15.909 6.67871 16.14 6.35011C16.3402 6.0626 16.6214 5.84006 16.9484 5.71029C16.9712 5.70108 16.9942 5.69259 17.0174 5.6848C17.3016 5.58747 17.6075 5.57028 17.9009 5.63515C18.1944 5.70002 18.464 5.8444 18.6797 6.05224L21.441 8.72307C21.4945 8.77033 21.9032 9.14043 21.8594 9.72611V9.72772Z" fill="#121108"/>
</svg>
